<?xml version="1.0" encoding="UTF-8" standalone="no"?>
<svg
   xmlns:dc="http://purl.org/dc/elements/1.1/"
   xmlns:cc="http://creativecommons.org/ns#"
   xmlns:rdf="http://www.w3.org/1999/02/22-rdf-syntax-ns#"
   xmlns:svg="http://www.w3.org/2000/svg"
   xmlns="http://www.w3.org/2000/svg"
   xmlns:sodipodi="http://sodipodi.sourceforge.net/DTD/sodipodi-0.dtd"
   xmlns:inkscape="http://www.inkscape.org/namespaces/inkscape"
   width="220"
   height="220"
   id="svg6240"
   version="1.1"
   inkscape:version="0.48.4 r9939"
   sodipodi:docname="facility_location.svg"
   inkscape:export-filename="G:\tropofy.com\static\css\img\apps\facility_location.png"
   inkscape:export-xdpi="90"
   inkscape:export-ydpi="90">
  <metadata
     id="metadata6255">
    <rdf:RDF>
      <cc:Work
         rdf:about="">
        <dc:format>image/svg+xml</dc:format>
        <dc:type
           rdf:resource="http://purl.org/dc/dcmitype/StillImage" />
        <dc:title>pink pin</dc:title>
      </cc:Work>
    </rdf:RDF>
  </metadata>
  <defs
     id="defs6253" />
  <sodipodi:namedview
     pagecolor="#ffffff"
     bordercolor="#666666"
     borderopacity="1"
     objecttolerance="10"
     gridtolerance="10"
     guidetolerance="10"
     inkscape:pageopacity="0"
     inkscape:pageshadow="2"
     inkscape:window-width="1920"
     inkscape:window-height="1018"
     id="namedview6251"
     showgrid="true"
     inkscape:zoom="1.4142136"
     inkscape:cx="-235.40533"
     inkscape:cy="120.54204"
     inkscape:window-x="1912"
     inkscape:window-y="-8"
     inkscape:window-maximized="1"
     inkscape:current-layer="svg6240">
    <inkscape:grid
       type="xygrid"
       id="grid2996" />
  </sodipodi:namedview>
  <title
     id="title6242">pink pin</title>
  <path
     style="fill:#666666;fill-opacity:1;stroke:#666666;stroke-width:6.76560068;stroke-linecap:butt;stroke-linejoin:miter;stroke-miterlimit:4;stroke-opacity:1;stroke-dasharray:none"
     d="m 101,139 c 21,46 17,37 17,37"
     id="path3972-5-1-7-1-14-1"
     inkscape:connector-curvature="0"
     sodipodi:nodetypes="cc" />
  <path
     style="fill:#666666;fill-opacity:1;stroke:#666666;stroke-width:6.76560068;stroke-linecap:butt;stroke-linejoin:miter;stroke-miterlimit:4;stroke-opacity:1;stroke-dasharray:none"
     d="M 61,150 C 97,130 88,135 88,135"
     id="path3972-5-1-7-1-1-0-7"
     inkscape:connector-curvature="0"
     sodipodi:nodetypes="cc" />
  <path
     style="fill:#666666;fill-opacity:1;stroke:#666666;stroke-width:6.766;stroke-linecap:butt;stroke-linejoin:miter;stroke-miterlimit:4;stroke-opacity:1;stroke-dasharray:none"
     d="M 88,125 C 28.83568,90.85928 35,95 35,95"
     id="path3972-5-1-7-5-7-7"
     inkscape:connector-curvature="0"
     sodipodi:nodetypes="cc" />
  <path
     transform="matrix(0.51072919,0,0,0.51072919,-57.65546,117.69097)"
     d="m 255,64.330688 a 22.5,20 0 1 1 -45,0 22.5,20 0 1 1 45,0 z"
     sodipodi:ry="20"
     sodipodi:rx="22.5"
     sodipodi:cy="64.330688"
     sodipodi:cx="232.5"
     id="path7886-8-8-1-2-9-9-4"
     style="fill:#4d4d4d;fill-opacity:1;stroke:#4d4d4d;stroke-width:6.18661404;stroke-linecap:square;stroke-linejoin:round;stroke-miterlimit:4;stroke-opacity:1;stroke-dasharray:none;display:inline"
     sodipodi:type="arc" />
  <path
     transform="matrix(0.51072919,0,0,0.51072919,-0.8965,143.09978)"
     d="m 255,64.330688 a 22.5,20 0 1 1 -45,0 22.5,20 0 1 1 45,0 z"
     sodipodi:ry="20"
     sodipodi:rx="22.5"
     sodipodi:cy="64.330688"
     sodipodi:cx="232.5"
     id="path7886-8-8-1-2-1-3-5-6"
     style="fill:#4d4d4d;fill-opacity:1;stroke:#4d4d4d;stroke-width:6.18661404;stroke-linecap:square;stroke-linejoin:round;stroke-miterlimit:4;stroke-opacity:1;stroke-dasharray:none;display:inline"
     sodipodi:type="arc" />
  <path
     transform="matrix(0.51072919,0,0,0.51072919,-83.44225,62.107782)"
     d="m 255,64.330688 a 22.5,20 0 1 1 -45,0 22.5,20 0 1 1 45,0 z"
     sodipodi:ry="20"
     sodipodi:rx="22.5"
     sodipodi:cy="64.330688"
     sodipodi:cx="232.5"
     id="path7886-8-8-1-2-17-4-3-7"
     style="fill:#4d4d4d;fill-opacity:1;stroke:#4d4d4d;stroke-width:6.18661404;stroke-linecap:square;stroke-linejoin:round;stroke-miterlimit:4;stroke-opacity:1;stroke-dasharray:none;display:inline"
     sodipodi:type="arc" />
  <path
     transform="matrix(0.58146873,0,0,0.58146873,59.30209,59.406962)"
     d="m 85,121.83069 a 20,17.5 0 1 1 -40,0 20,17.5 0 1 1 40,0 z"
     sodipodi:ry="17.5"
     sodipodi:rx="20"
     sodipodi:cy="121.83069"
     sodipodi:cx="65"
     id="path7726-1-4-2-4-4-8-0"
     style="fill:none;fill-opacity:1;stroke:#0099cb;display:inline;stroke-opacity:1;stroke-width:11.63605135;stroke-miterlimit:4;stroke-dasharray:none"
     sodipodi:type="arc" />
  <path
     style="fill:#666666;fill-opacity:1;stroke:#666666;stroke-width:6.76560068;stroke-linecap:butt;stroke-linejoin:miter;stroke-miterlimit:4;stroke-opacity:1;stroke-dasharray:none"
     d="m 67,44 c 64,33 54,28 54,28"
     id="path3972-5-2-7"
     inkscape:connector-curvature="0"
     sodipodi:nodetypes="cc" />
  <path
     transform="matrix(0.51072919,0,0,0.51072919,-51.41698,11.189097)"
     d="m 255,64.330688 a 22.5,20 0 1 1 -45,0 22.5,20 0 1 1 45,0 z"
     sodipodi:ry="20"
     sodipodi:rx="22.5"
     sodipodi:cy="64.330688"
     sodipodi:cx="232.5"
     id="path7886-8-8-1-2-8-8-0-3-4"
     style="fill:#4d4d4d;fill-opacity:1;stroke:#4d4d4d;stroke-width:6.18661404;stroke-linecap:square;stroke-linejoin:round;stroke-miterlimit:4;stroke-opacity:1;stroke-dasharray:none;display:inline"
     sodipodi:type="arc" />
  <path
     style="fill:#666666;fill-opacity:1;stroke:#666666;stroke-width:6.76560068;stroke-linecap:butt;stroke-linejoin:miter;stroke-miterlimit:4;stroke-opacity:1;stroke-dasharray:none"
     d="m 138,83 c 54,45 47,39 47,39"
     id="path3972-2-1"
     inkscape:connector-curvature="0"
     sodipodi:nodetypes="cc"
     inkscape:export-xdpi="90"
     inkscape:export-ydpi="90" />
  <path
     style="fill:#666666;fill-opacity:1;stroke:#666666;stroke-width:6.76560068;stroke-linecap:butt;stroke-linejoin:miter;stroke-miterlimit:4;stroke-opacity:1;stroke-dasharray:none"
     d="M 140,71 C 186,42 186,42 186,42"
     id="path3972-5-5-1-2"
     inkscape:connector-curvature="0"
     sodipodi:nodetypes="cc" />
  <path
     transform="matrix(0.58146873,0,0,0.58146873,93.06275,6.011535)"
     d="m 85,121.83069 a 20,17.5 0 1 1 -40,0 20,17.5 0 1 1 40,0 z"
     sodipodi:ry="17.5"
     sodipodi:rx="20"
     sodipodi:cy="121.83069"
     sodipodi:cx="65"
     id="path7726-1-4-2-0-0-1"
     style="fill:none;fill-opacity:1;stroke:#0099cb;display:inline;stroke-opacity:1;stroke-width:11.63605135;stroke-miterlimit:4;stroke-dasharray:none;marker-start:none"
     sodipodi:type="arc" />
  <path
     transform="matrix(0.51072919,0,0,0.51072919,58.53191,15.275983)"
     d="m 255,64.330688 a 22.5,20 0 1 1 -45,0 22.5,20 0 1 1 45,0 z"
     sodipodi:ry="20"
     sodipodi:rx="22.5"
     sodipodi:cy="64.330688"
     sodipodi:cx="232.5"
     id="path7886-8-8-1-2-8-6-4-8"
     style="fill:#4d4d4d;fill-opacity:1;stroke:#4d4d4d;stroke-width:6.18661404;stroke-linecap:square;stroke-linejoin:round;stroke-miterlimit:4;stroke-opacity:1;stroke-dasharray:none;display:inline"
     sodipodi:type="arc" />
  <path
     transform="matrix(0.51072919,0,0,0.51072919,65.95437,88.558782)"
     d="m 255,64.330688 a 22.5,20 0 1 1 -45,0 22.5,20 0 1 1 45,0 z"
     sodipodi:ry="20"
     sodipodi:rx="22.5"
     sodipodi:cy="64.330688"
     sodipodi:cx="232.5"
     id="path7886-8-8-1-2-1-9-2-0-3"
     style="fill:#4d4d4d;fill-opacity:1;stroke:#4d4d4d;stroke-width:6.1819067;stroke-linecap:square;stroke-linejoin:round;stroke-miterlimit:4;stroke-opacity:1;stroke-dasharray:none;display:inline"
     sodipodi:type="arc" />
</svg>
